<?xml version="1.0" encoding="UTF-8"?>
<svg width="100px" height="100px" viewBox="0 0 100 100" version="1.1" xmlns="http://www.w3.org/2000/svg" xmlns:xlink="http://www.w3.org/1999/xlink">
    <!-- Generator: Sketch 49.2 (51160) - http://www.bohemiancoding.com/sketch -->
    <title>redactor-clips</title>
    <desc>Created with Sketch.</desc>
    <defs></defs>
    <g id="redactor-clips" stroke="none" stroke-width="1" fill="none" fill-rule="evenodd">
        <circle id="Oval" fill="#EF2B60" cx="50" cy="50" r="50"></circle>
        <path d="M64.2857143,30 C65.8631031,30 67.2098158,30.5580301 68.3258929,31.6741071 C69.4419699,32.7901842 70,34.1368969 70,35.7142857 L70,64.2857143 C70,65.8631031 69.4419699,67.2098158 68.3258929,68.3258929 C67.2098158,69.4419699 65.8631031,70 64.2857143,70 L35.7142857,70 C34.1368969,70 32.7901842,69.4419699 31.6741071,68.3258929 C30.5580301,67.2098158 30,65.8631031 30,64.2857143 L30,35.7142857 C30,34.1368969 30.5580301,32.7901842 31.6741071,31.6741071 C32.7901842,30.5580301 34.1368969,30 35.7142857,30 L64.2857143,30 Z M64.2857143,64.2857143 L64.2857143,35.7142857 L35.7142857,35.7142857 L35.7142857,64.2857143 L64.2857143,64.2857143 Z M41.4285714,38.5714286 L58.5714286,38.5714286 C59.375004,38.5714286 60.0520806,38.8467234 60.6026786,39.3973214 C61.1532766,39.9479194 61.4285714,40.624996 61.4285714,41.4285714 C61.4285714,42.2321469 61.1532766,42.9092234 60.6026786,43.4598214 C60.0520806,44.0104194 59.375004,44.2857143 58.5714286,44.2857143 L41.4285714,44.2857143 C40.624996,44.2857143 39.9479194,44.0104194 39.3973214,43.4598214 C38.8467234,42.9092234 38.5714286,42.2321469 38.5714286,41.4285714 C38.5714286,40.624996 38.8467234,39.9479194 39.3973214,39.3973214 C39.9479194,38.8467234 40.624996,38.5714286 41.4285714,38.5714286 Z M41.4285714,47.1428571 L58.5714286,47.1428571 C59.375004,47.1428571 60.0520806,47.418152 60.6026786,47.96875 C61.1532766,48.519348 61.4285714,49.1964246 61.4285714,50 C61.4285714,50.8035754 61.1532766,51.480652 60.6026786,52.03125 C60.0520806,52.581848 59.375004,52.8571429 58.5714286,52.8571429 L41.4285714,52.8571429 C40.624996,52.8571429 39.9479194,52.581848 39.3973214,52.03125 C38.8467234,51.480652 38.5714286,50.8035754 38.5714286,50 C38.5714286,49.1964246 38.8467234,48.519348 39.3973214,47.96875 C39.9479194,47.418152 40.624996,47.1428571 41.4285714,47.1428571 Z M41.4285714,55.7142857 L58.5714286,55.7142857 C59.375004,55.7142857 60.0520806,55.9895806 60.6026786,56.5401786 C61.1532766,57.0907766 61.4285714,57.7678531 61.4285714,58.5714286 C61.4285714,59.375004 61.1532766,60.0520806 60.6026786,60.6026786 C60.0520806,61.1532766 59.375004,61.4285714 58.5714286,61.4285714 L41.4285714,61.4285714 C40.624996,61.4285714 39.9479194,61.1532766 39.3973214,60.6026786 C38.8467234,60.0520806 38.5714286,59.375004 38.5714286,58.5714286 C38.5714286,57.7678531 38.8467234,57.0907766 39.3973214,56.5401786 C39.9479194,55.9895806 40.624996,55.7142857 41.4285714,55.7142857 Z" id="" fill="#FFFFFF"></path>
    </g>
</svg>